<?xml version="1.0" standalone="no"?><!DOCTYPE svg PUBLIC "-//W3C//DTD SVG 1.1//EN" "http://www.w3.org/Graphics/SVG/1.1/DTD/svg11.dtd"><svg t="1557022114050" class="icon" style="" viewBox="0 0 1024 1024" version="1.1" xmlns="http://www.w3.org/2000/svg" p-id="6025" xmlns:xlink="http://www.w3.org/1999/xlink" width="48" height="48"><defs><style type="text/css"></style></defs><path d="M581.12 332.416c-32.448 0-58.624-23.552-58.624-58.624s26.176-58.624 58.624-58.624c32.448 0 59.136 23.552 59.136 58.624a57.664 57.664 0 0 1-59.136 58.624m11.008 368c-38.784 58.176-78.08 102.656-144 102.656-44.992-7.296-63.872-39.808-53.888-72.768l85.312-281.6a13.12 13.12 0 0 0-7.872-16.256c-6.272-2.112-18.816 5.76-29.312 17.792L391.04 512c-1.536-10.496 0-27.776 0-34.56 38.784-58.112 102.144-103.68 145.024-103.68 40.832 4.224 60.224 37.184 52.864 72.832l-85.824 283.2a14.08 14.08 0 0 0 7.872 15.168c6.272 2.112 19.328-5.76 30.336-17.792l51.328-61.76c2.048 9.92-0.512 27.712-0.512 35.072M512 0C229.312 0 0 229.312 0 512s229.312 512 512 512 512-229.312 512-512-229.312-512-512-512" p-id="6026" fill="#909399"></path></svg>